<?xml version="1.0" encoding="utf-8"?>
<!-- Generator: Adobe Illustrator 16.0.0, SVG Export Plug-In . SVG Version: 6.00 Build 0)  -->
<!DOCTYPE svg PUBLIC "-//W3C//DTD SVG 1.1//EN" "http://www.w3.org/Graphics/SVG/1.1/DTD/svg11.dtd">
<svg version="1.1" id="Layer_1" xmlns="http://www.w3.org/2000/svg" xmlns:xlink="http://www.w3.org/1999/xlink" x="0px" y="0px"
	 width="132.937px" height="40px" viewBox="0 0 132.937 40" enable-background="new 0 0 132.937 40" xml:space="preserve">
<g>
	<path fill="#124D66" d="M43.788,13.619c1.485,0,2.744,0.519,3.783,1.556c0.251,0.282,0.368,0.614,0.345,1.003
		c-0.022,0.387-0.167,0.702-0.436,0.957c-0.265,0.251-0.608,0.384-1.022,0.4c-0.417,0.014-0.757-0.12-1.022-0.4
		c-0.46-0.417-1.009-0.625-1.648-0.625c-0.34,0-0.662,0.071-0.968,0.211c-0.302,0.141-0.57,0.326-0.799,0.554
		c-0.23,0.231-0.414,0.495-0.546,0.791c-0.133,0.299-0.201,0.61-0.201,0.932c0,0.344,0.068,0.666,0.201,0.97
		c0.133,0.308,0.319,0.572,0.556,0.803c0.237,0.228,0.504,0.408,0.801,0.542c0.297,0.134,0.615,0.193,0.955,0.183
		c0.654,0,1.202-0.2,1.648-0.604c0.267-0.297,0.608-0.443,1.023-0.443c0.413,0,0.756,0.148,1.021,0.443
		c0.135,0.117,0.239,0.26,0.312,0.423c0.074,0.161,0.114,0.333,0.122,0.508c0.007,0.183-0.018,0.356-0.077,0.524
		c-0.06,0.17-0.148,0.325-0.268,0.456c-0.521,0.521-1.089,0.913-1.713,1.181c-0.621,0.268-1.312,0.397-2.069,0.397
		c-0.741,0-1.438-0.143-2.09-0.431c-0.651-0.289-1.223-0.678-1.711-1.166c-0.488-0.491-0.879-1.062-1.167-1.714
		c-0.291-0.651-0.434-1.343-0.434-2.069c0-0.712,0.145-1.392,0.434-2.047c0.288-0.651,0.682-1.221,1.179-1.71
		c0.496-0.49,1.072-0.883,1.724-1.18C42.376,13.769,43.064,13.619,43.788,13.619z"/>
	<path fill="#124D66" d="M50.529,13.598c0.385,0,0.727,0.144,1.021,0.435c0.296,0.289,0.444,0.641,0.444,1.057V19
		c0,0.343,0.067,0.665,0.2,0.969c0.135,0.306,0.312,0.566,0.536,0.789c0.222,0.222,0.483,0.404,0.787,0.535
		c0.304,0.134,0.626,0.2,0.967,0.2c0.326,0,0.638-0.062,0.935-0.179c0.293-0.117,0.558-0.282,0.788-0.488
		c0.23-0.21,0.411-0.461,0.546-0.756c0.134-0.298,0.2-0.615,0.2-0.957v-4.047c0-0.298,0.076-0.548,0.223-0.755
		c0.029-0.045,0.062-0.091,0.098-0.134c0.037-0.043,0.079-0.089,0.122-0.135c0.267-0.296,0.599-0.444,1-0.444
		c0.4,0,0.749,0.147,1.045,0.444c0.28,0.281,0.429,0.6,0.444,0.957V19c0,0.744-0.142,1.441-0.422,2.094
		c-0.282,0.652-0.667,1.225-1.157,1.711c-0.489,0.489-1.059,0.877-1.712,1.155c-0.651,0.283-1.355,0.427-2.112,0.427
		c-0.712,0.03-1.395-0.093-2.046-0.369c-0.652-0.271-1.229-0.652-1.725-1.134c-0.497-0.48-0.892-1.047-1.19-1.69
		c-0.297-0.642-0.444-1.32-0.444-2.037V15.07c0-0.388,0.137-0.724,0.41-1.014C49.769,13.764,50.115,13.613,50.529,13.598z"/>
	<path fill="#124D66" d="M68.343,13.574c0.4,0,0.733,0.154,0.998,0.457c0.269,0.303,0.399,0.625,0.399,0.966
		c0,0.386-0.143,0.725-0.432,1.011c-0.29,0.291-0.611,0.435-0.967,0.435h-3.828c-0.178,0-0.313,0.054-0.41,0.157
		c-0.097,0.102-0.143,0.228-0.143,0.377c0,0.148,0.046,0.28,0.143,0.39c0.097,0.11,0.232,0.164,0.41,0.164h2.513
		c0.461,0,0.888,0.095,1.278,0.28c0.394,0.185,0.735,0.438,1.024,0.755c0.286,0.318,0.515,0.68,0.677,1.089
		c0.163,0.406,0.244,0.836,0.244,1.281c0,0.501-0.087,0.966-0.268,1.387c-0.176,0.423-0.42,0.788-0.732,1.091
		c-0.309,0.302-0.682,0.54-1.108,0.71c-0.434,0.176-0.907,0.257-1.425,0.257H62.96c-0.384,0-0.711-0.13-0.979-0.399
		c-0.265-0.268-0.398-0.605-0.398-1.021c0-0.371,0.134-0.711,0.398-1.011c0.267-0.308,0.595-0.465,0.979-0.481h3.758
		c0.4,0,0.6-0.175,0.6-0.529c0-0.342-0.199-0.512-0.6-0.512h-2.447c-0.444,0-0.864-0.094-1.257-0.279
		c-0.391-0.186-0.732-0.438-1.022-0.746c-0.289-0.312-0.518-0.677-0.678-1.091c-0.164-0.413-0.242-0.858-0.242-1.335
		c0-0.443,0.083-0.87,0.253-1.279c0.173-0.407,0.404-0.767,0.702-1.077c0.293-0.31,0.643-0.558,1.042-0.743
		c0.401-0.186,0.838-0.286,1.313-0.303L68.343,13.574L68.343,13.574L68.343,13.574z"/>
	<path fill="#124D66" d="M72.966,10.173c0.414,0,0.762,0.143,1.041,0.434c0.286,0.289,0.441,0.648,0.471,1.079v1.689h4.271
		c0.429,0,0.777,0.147,1.043,0.443c0.266,0.297,0.399,0.645,0.399,1.044c0,0.386-0.147,0.73-0.445,1.034
		c-0.298,0.305-0.629,0.457-1.003,0.457h-4.266v2.536c0,0.341,0.061,0.663,0.188,0.967c0.126,0.304,0.302,0.575,0.521,0.812
		c0.224,0.238,0.486,0.423,0.789,0.555c0.306,0.134,0.635,0.199,0.99,0.199c0.387,0,0.717-0.051,0.99-0.155
		c0.274-0.104,0.515-0.259,0.725-0.465c0.308-0.268,0.655-0.407,1.037-0.412c0.374-0.006,0.727,0.141,1.051,0.436
		c0.147,0.132,0.259,0.286,0.338,0.457c0.069,0.17,0.111,0.346,0.121,0.532c0.004,0.185-0.021,0.367-0.078,0.546
		c-0.063,0.177-0.159,0.334-0.289,0.467c-0.521,0.504-1.091,0.886-1.715,1.155c-0.62,0.268-1.29,0.397-2.001,0.397
		c-0.771,0-1.498-0.123-2.177-0.387c-0.685-0.259-1.285-0.631-1.803-1.11c-0.518-0.482-0.93-1.063-1.235-1.734
		c-0.301-0.674-0.461-1.427-0.476-2.257v-7.316c0-0.402,0.152-0.733,0.457-1.001C72.212,10.307,72.567,10.173,72.966,10.173z"/>
	<path fill="#124D66" d="M87.578,13.645c0.722,0,1.416,0.139,2.061,0.419c0.654,0.282,1.229,0.669,1.717,1.158
		c0.489,0.489,0.879,1.06,1.166,1.711c0.291,0.652,0.438,1.346,0.438,2.09c0,0.743-0.142,1.439-0.41,2.094
		c-0.277,0.651-0.654,1.223-1.139,1.712c-0.479,0.488-1.047,0.877-1.715,1.156c-0.659,0.28-1.365,0.423-2.117,0.423
		c-0.922,0-1.75-0.187-2.493-0.557v2.557c0,0.385-0.142,0.721-0.422,1.001c-0.282,0.278-0.637,0.418-1.051,0.418
		c-0.369,0-0.698-0.127-0.987-0.385c-0.288-0.263-0.44-0.583-0.453-0.97v-7.448c0-0.726,0.145-1.415,0.43-2.068
		c0.291-0.651,0.681-1.222,1.169-1.711c0.487-0.49,1.059-0.879,1.71-1.166C86.139,13.785,86.83,13.645,87.578,13.645z
		 M85.085,19.022c0,0.372,0.067,0.71,0.199,1.012c0.136,0.304,0.315,0.569,0.546,0.792c0.227,0.223,0.496,0.396,0.801,0.521
		c0.301,0.123,0.618,0.192,0.942,0.192c0.355,0,0.684-0.069,0.979-0.201c0.3-0.136,0.555-0.316,0.775-0.544
		c0.224-0.229,0.401-0.498,0.525-0.803c0.123-0.303,0.187-0.625,0.187-0.966c0-0.341-0.065-0.664-0.195-0.967
		c-0.134-0.304-0.316-0.567-0.538-0.789c-0.222-0.223-0.481-0.396-0.775-0.524c-0.299-0.126-0.614-0.188-0.956-0.188
		c-0.354,0-0.688,0.067-0.991,0.201c-0.305,0.134-0.566,0.311-0.793,0.535c-0.221,0.221-0.394,0.48-0.523,0.777
		C85.146,18.364,85.085,18.682,85.085,19.022z"/>
	<path fill="#124D66" d="M95.312,10.238c0.4,0,0.742,0.142,1.011,0.423c0.28,0.282,0.427,0.631,0.457,1.046v8.786
		c0,0.296,0.097,0.545,0.291,0.753c0.191,0.21,0.435,0.31,0.729,0.31c0.389,0,0.728,0.134,1.015,0.403
		c0.291,0.268,0.443,0.599,0.458,0.998c0,0.356-0.126,0.669-0.364,0.945c-0.249,0.275-0.563,0.441-0.95,0.499H97.65
		c-0.52,0-1.006-0.104-1.466-0.323c-0.465-0.214-0.865-0.499-1.213-0.857c-0.346-0.354-0.622-0.769-0.827-1.244
		c-0.197-0.474-0.298-0.971-0.298-1.488v-8.873c0.046-0.37,0.199-0.69,0.468-0.956C94.582,10.397,94.916,10.254,95.312,10.238z"/>
	<path fill="#124D66" d="M105.653,13.645c0.668,0.072,1.292,0.264,1.883,0.575c0.581,0.312,1.083,0.708,1.513,1.192
		c0.422,0.479,0.754,1.029,0.999,1.644c0.243,0.614,0.365,1.263,0.365,1.944v3.938c0,0.402-0.146,0.743-0.444,1.021
		c-0.292,0.283-0.632,0.427-0.999,0.427c-0.521,0-0.938-0.237-1.244-0.713c-0.077,0.032-0.145,0.065-0.201,0.1
		c-0.062,0.038-0.119,0.07-0.176,0.1c-0.357,0.161-0.723,0.289-1.094,0.38c-0.383,0.086-0.793,0.132-1.22,0.132
		c-1.114,0-2.105-0.301-2.981-0.9c-0.872-0.599-1.525-1.376-1.959-2.323c-0.145-0.342-0.261-0.689-0.338-1.042
		c-0.085-0.358-0.129-0.729-0.129-1.115c0-0.385,0.044-0.756,0.129-1.113c0.079-0.355,0.191-0.702,0.338-1.042
		c0.436-0.965,1.086-1.744,1.959-2.336c0.876-0.592,1.869-0.891,2.981-0.891c0.118,0,0.225,0,0.324,0
		C105.447,13.619,105.551,13.627,105.653,13.645z M105.01,21.493c0.34,0,0.661-0.063,0.966-0.189
		c0.305-0.125,0.567-0.302,0.793-0.522c0.224-0.223,0.401-0.487,0.532-0.794c0.136-0.301,0.198-0.632,0.198-0.988
		c0-0.323-0.063-0.638-0.198-0.944c-0.131-0.303-0.313-0.569-0.544-0.799c-0.232-0.231-0.5-0.409-0.803-0.545
		c-0.302-0.136-0.619-0.202-0.94-0.202c-0.328,0-0.641,0.068-0.935,0.202c-0.3,0.135-0.561,0.313-0.794,0.545
		c-0.229,0.228-0.407,0.496-0.542,0.799c-0.138,0.305-0.2,0.621-0.2,0.944c0,0.344,0.063,0.665,0.208,0.968
		c0.145,0.308,0.328,0.568,0.557,0.791c0.231,0.222,0.495,0.404,0.793,0.533C104.394,21.425,104.7,21.493,105.01,21.493z"/>
	<path fill="#124D66" d="M116.906,13.619c1.485,0,2.744,0.519,3.782,1.556c0.254,0.282,0.365,0.614,0.346,1.003
		c-0.022,0.387-0.167,0.702-0.434,0.957c-0.27,0.251-0.608,0.384-1.022,0.4c-0.417,0.014-0.757-0.12-1.024-0.4
		c-0.461-0.417-1.009-0.625-1.646-0.625c-0.343,0-0.668,0.071-0.968,0.211c-0.302,0.141-0.569,0.326-0.802,0.554
		c-0.228,0.231-0.408,0.495-0.541,0.791c-0.138,0.299-0.201,0.61-0.201,0.932c0,0.344,0.062,0.666,0.201,0.97
		c0.131,0.308,0.315,0.572,0.555,0.803c0.239,0.228,0.501,0.408,0.798,0.542c0.301,0.134,0.615,0.193,0.958,0.183
		c0.653,0,1.199-0.2,1.646-0.604c0.266-0.297,0.602-0.443,1.021-0.443c0.41,0,0.753,0.148,1.024,0.443
		c0.134,0.117,0.237,0.26,0.31,0.423c0.072,0.161,0.114,0.333,0.119,0.508c0.013,0.183-0.019,0.356-0.072,0.524
		c-0.062,0.17-0.149,0.325-0.271,0.456c-0.517,0.521-1.089,0.913-1.709,1.181c-0.628,0.268-1.311,0.397-2.07,0.397
		c-0.74,0-1.437-0.143-2.087-0.431c-0.655-0.289-1.225-0.678-1.718-1.166c-0.488-0.491-0.874-1.062-1.167-1.714
		c-0.286-0.651-0.431-1.343-0.431-2.069c0-0.712,0.145-1.392,0.431-2.047c0.291-0.651,0.687-1.221,1.179-1.71
		c0.496-0.49,1.077-0.883,1.726-1.18C115.491,13.767,116.178,13.619,116.906,13.619z"/>
	<path fill="#124D66" d="M127.47,13.619c0.712,0,1.392,0.148,2.042,0.443c0.656,0.296,1.229,0.693,1.724,1.191
		c0.496,0.497,0.896,1.067,1.19,1.712c0.302,0.643,0.446,1.321,0.446,2.032c0,0.387-0.147,0.728-0.43,1.022
		c-0.291,0.297-0.65,0.439-1.08,0.425h-5.916c0.488,0.696,1.164,1.046,2.02,1.046c0.242,0,0.438-0.023,0.603-0.068
		c0.166-0.043,0.308-0.098,0.433-0.157c0.126-0.06,0.25-0.108,0.382-0.152c0.121-0.047,0.266-0.068,0.428-0.068
		c0.313,0.017,0.584,0.104,0.816,0.266c0.229,0.163,0.397,0.367,0.511,0.613c0.109,0.242,0.15,0.51,0.109,0.79
		c-0.039,0.28-0.164,0.542-0.388,0.775c-0.401,0.329-0.848,0.552-1.337,0.68c-0.485,0.127-1.005,0.199-1.553,0.21
		c-0.714,0.031-1.396-0.098-2.048-0.387c-0.651-0.289-1.228-0.686-1.725-1.179c-0.495-0.495-0.888-1.08-1.177-1.747
		c-0.29-0.669-0.437-1.356-0.437-2.069c0-0.696,0.146-1.369,0.437-2.023c0.291-0.652,0.676-1.227,1.17-1.724
		c0.488-0.498,1.061-0.895,1.706-1.191C126.054,13.77,126.741,13.619,127.47,13.619z M129.491,17.533
		c-0.251-0.308-0.544-0.558-0.888-0.746c-0.34-0.183-0.717-0.278-1.131-0.278c-0.431,0-0.816,0.096-1.149,0.278
		c-0.334,0.188-0.625,0.435-0.876,0.746H129.491z"/>
</g>
<g>
	<path fill="#F1BE1C" d="M11.924,33.771c-1.61-0.479-2.301-2.828-3.613-3.735C6.955,29.104,4.522,29.281,3.537,28
		c-0.992-1.296-0.185-3.611-0.731-5.148c-0.541-1.523-2.634-2.804-2.678-4.457c-0.045-1.595,1.955-2.988,2.43-4.601
		c0.475-1.608-0.451-3.866,0.452-5.18C3.938,7.253,6.388,7.316,7.67,6.33c1.294-0.996,1.87-3.374,3.404-3.926
		c1.52-0.54,3.465,0.931,5.112,0.885c1.594-0.045,3.45-1.642,5.058-1.167c1.608,0.477,2.3,2.828,3.614,3.733
		c1.355,0.934,3.789,0.752,4.771,2.038c0.992,1.295,0.184,3.61,0.732,5.149c0.542,1.523,2.631,2.804,2.677,4.456
		c0.045,1.594-1.955,2.987-2.427,4.6c-0.474,1.611,0.448,3.866-0.45,5.183c-0.933,1.358-3.384,1.295-4.666,2.284
		c-1.292,0.994-1.868,3.375-3.404,3.928c-1.521,0.541-3.468-0.934-5.115-0.891C15.387,32.645,13.531,34.243,11.924,33.771z"/>
	<g>
		<path fill="#114E6B" d="M16.582,34.445c-1.674,0-3.004-2.063-4.518-2.557c-1.565-0.514-3.848,0.354-5.152-0.601
			c-1.318-0.962-1.199-3.411-2.159-4.729c-0.949-1.311-3.316-1.944-3.826-3.516c-0.493-1.518,1.031-3.419,1.031-5.099
			c0-1.678-1.524-3.583-1.031-5.097c0.512-1.569,2.877-2.207,3.826-3.516c0.961-1.319,0.842-3.769,2.159-4.729
			C8.217,3.65,10.5,4.515,12.065,4c1.512-0.49,2.844-2.555,4.518-2.555c1.677,0,3.005,2.064,4.519,2.555
			c1.569,0.515,3.85-0.351,5.154,0.603c1.318,0.96,1.199,3.41,2.159,4.729c0.95,1.309,3.316,1.946,3.827,3.516
			c0.492,1.514-1.033,3.419-1.033,5.098c0,1.679,1.524,3.582,1.033,5.098c-0.511,1.569-2.877,2.205-3.827,3.515
			c-0.961,1.318-0.841,3.769-2.159,4.729c-1.304,0.954-3.585,0.092-5.154,0.601C19.588,32.382,18.259,34.445,16.582,34.445z"/>
	</g>
	<g>
		<g>
			<g>
				<path fill="#FFFFFF" d="M4.681,20.693c0.42,0,0.78,0.147,1.078,0.441c0.069,0.083,0.102,0.18,0.095,0.288
					c-0.005,0.109-0.048,0.2-0.122,0.271c-0.077,0.074-0.174,0.113-0.294,0.115c-0.117,0.004-0.214-0.035-0.291-0.115
					c-0.13-0.113-0.287-0.18-0.466-0.18c-0.098,0-0.192,0.022-0.278,0.064c-0.088,0.037-0.162,0.093-0.227,0.156
					c-0.066,0.063-0.118,0.14-0.155,0.228c-0.038,0.08-0.058,0.173-0.058,0.265c0,0.099,0.02,0.192,0.058,0.278
					c0.039,0.083,0.091,0.161,0.16,0.224c0.067,0.07,0.143,0.119,0.226,0.158c0.084,0.035,0.178,0.053,0.275,0.049
					c0.184,0,0.341-0.054,0.467-0.166c0.077-0.088,0.173-0.131,0.292-0.131c0.118,0,0.214,0.043,0.292,0.131
					c0.037,0.03,0.066,0.071,0.089,0.117c0.02,0.045,0.032,0.096,0.035,0.147c0,0.051-0.004,0.103-0.023,0.149
					c-0.018,0.051-0.044,0.096-0.074,0.131c-0.148,0.148-0.313,0.26-0.49,0.336c-0.18,0.074-0.374,0.113-0.588,0.113
					c-0.213,0-0.412-0.039-0.599-0.123c-0.188-0.084-0.35-0.195-0.488-0.332c-0.142-0.141-0.25-0.304-0.334-0.492
					c-0.082-0.188-0.122-0.381-0.122-0.59c0-0.201,0.042-0.397,0.122-0.586c0.085-0.188,0.196-0.351,0.337-0.486
					c0.141-0.146,0.304-0.256,0.491-0.338C4.275,20.734,4.473,20.693,4.681,20.693z"/>
				<path fill="#FFFFFF" d="M6.582,20.688c0.111,0,0.208,0.043,0.292,0.123C6.959,20.896,7,20.996,7,21.117v1.117
					c0,0.097,0.019,0.195,0.058,0.274c0.037,0.091,0.086,0.163,0.151,0.228c0.063,0.063,0.14,0.115,0.228,0.152
					c0.084,0.035,0.178,0.057,0.272,0.057c0.093,0,0.183-0.016,0.268-0.049c0.084-0.035,0.158-0.08,0.226-0.143
					c0.064-0.061,0.117-0.133,0.155-0.214c0.04-0.083,0.058-0.177,0.058-0.271v-1.162c0-0.086,0.023-0.153,0.062-0.215
					c0.009-0.014,0.019-0.023,0.03-0.035c0.01-0.017,0.023-0.024,0.036-0.039c0.075-0.088,0.168-0.127,0.283-0.127
					c0.117,0,0.213,0.043,0.298,0.127c0.082,0.08,0.122,0.172,0.126,0.271v1.145c0,0.211-0.04,0.412-0.123,0.603
					C9.05,23.023,8.94,23.186,8.8,23.326c-0.14,0.139-0.304,0.25-0.489,0.33s-0.384,0.119-0.601,0.119
					c-0.202,0.011-0.396-0.03-0.583-0.104c-0.186-0.08-0.351-0.187-0.491-0.323c-0.143-0.141-0.256-0.302-0.341-0.488
					c-0.083-0.187-0.127-0.373-0.127-0.582v-1.168c0-0.109,0.042-0.207,0.118-0.287C6.366,20.732,6.464,20.689,6.582,20.688z"/>
				<path fill="#FFFFFF" d="M11.646,20.682c0.116,0,0.211,0.043,0.287,0.129c0.076,0.09,0.114,0.181,0.114,0.275
					c0,0.111-0.042,0.207-0.122,0.291c-0.083,0.085-0.176,0.123-0.278,0.123h-1.09c-0.052,0-0.091,0.014-0.118,0.046
					c-0.027,0.029-0.043,0.065-0.043,0.104c0,0.043,0.015,0.082,0.043,0.115c0.027,0.026,0.066,0.041,0.118,0.041h0.717
					c0.129,0,0.253,0.027,0.362,0.082c0.113,0.055,0.212,0.127,0.293,0.213c0.083,0.094,0.147,0.196,0.196,0.314
					c0.046,0.115,0.067,0.234,0.067,0.368c0,0.141-0.024,0.272-0.074,0.396c-0.051,0.117-0.121,0.227-0.209,0.31
					c-0.09,0.089-0.196,0.151-0.318,0.206c-0.124,0.046-0.257,0.07-0.405,0.07h-1.074c-0.108,0-0.203-0.035-0.278-0.115
					c-0.077-0.072-0.117-0.174-0.117-0.293c0-0.104,0.039-0.201,0.117-0.287c0.075-0.088,0.168-0.135,0.278-0.137h1.072
					c0.115,0,0.171-0.053,0.171-0.151s-0.056-0.15-0.171-0.15h-0.699c-0.126,0-0.244-0.022-0.359-0.075
					c-0.11-0.051-0.21-0.123-0.291-0.217c-0.083-0.089-0.148-0.188-0.196-0.308C9.593,21.914,9.57,21.787,9.57,21.65
					c0-0.127,0.024-0.25,0.073-0.365c0.048-0.115,0.114-0.219,0.2-0.309c0.084-0.092,0.183-0.16,0.297-0.216
					c0.115-0.051,0.24-0.077,0.375-0.087L11.646,20.682L11.646,20.682z"/>
				<path fill="#FFFFFF" d="M12.946,19.704c0.118,0,0.218,0.043,0.3,0.127c0.081,0.081,0.125,0.184,0.134,0.309v0.483h1.217
					c0.125,0,0.224,0.042,0.298,0.125c0.077,0.085,0.117,0.186,0.117,0.298s-0.043,0.213-0.128,0.298
					c-0.083,0.088-0.18,0.129-0.285,0.129h-1.217V22.2c0,0.099,0.019,0.188,0.055,0.28c0.034,0.086,0.083,0.158,0.148,0.229
					c0.062,0.068,0.139,0.119,0.226,0.158c0.085,0.031,0.179,0.058,0.281,0.058c0.107,0,0.202-0.017,0.282-0.048
					c0.08-0.025,0.147-0.068,0.206-0.13c0.089-0.075,0.188-0.114,0.296-0.117c0.106-0.003,0.208,0.039,0.299,0.124
					c0.043,0.039,0.075,0.081,0.095,0.131c0.022,0.049,0.032,0.102,0.035,0.15c0.001,0.056-0.007,0.107-0.024,0.158
					c-0.017,0.05-0.044,0.093-0.084,0.134c-0.148,0.146-0.309,0.253-0.489,0.328c-0.179,0.077-0.369,0.114-0.57,0.114
					c-0.221,0-0.428-0.033-0.623-0.11c-0.192-0.075-0.367-0.183-0.512-0.315c-0.15-0.141-0.267-0.304-0.353-0.496
					c-0.088-0.197-0.132-0.408-0.136-0.646v-2.093c0-0.115,0.043-0.211,0.131-0.287C12.73,19.744,12.832,19.704,12.946,19.704z"/>
			</g>
		</g>
		<g>
			<g>
				<path fill="#FFFFFF" d="M17.186,20.688c0.209,0,0.403,0.043,0.591,0.123c0.185,0.082,0.35,0.19,0.487,0.33
					c0.141,0.143,0.253,0.301,0.335,0.491c0.081,0.187,0.122,0.388,0.122,0.595c0,0.219-0.037,0.414-0.117,0.602
					c-0.076,0.188-0.186,0.354-0.327,0.492c-0.135,0.142-0.299,0.254-0.486,0.328c-0.188,0.084-0.389,0.121-0.607,0.121
					c-0.262,0-0.499-0.055-0.71-0.158v0.734c0,0.106-0.04,0.199-0.121,0.282c-0.082,0.08-0.178,0.119-0.298,0.119
					c-0.108,0-0.202-0.036-0.282-0.108c-0.083-0.078-0.127-0.17-0.133-0.274v-2.136c0-0.205,0.042-0.402,0.124-0.59
					c0.083-0.188,0.193-0.352,0.333-0.49c0.139-0.14,0.303-0.25,0.488-0.332C16.774,20.73,16.973,20.688,17.186,20.688z
					 M16.475,22.227c0,0.107,0.021,0.209,0.059,0.293c0.036,0.09,0.089,0.16,0.154,0.229c0.063,0.063,0.141,0.111,0.229,0.148
					c0.085,0.035,0.176,0.053,0.269,0.053c0.101,0,0.194-0.02,0.279-0.055c0.085-0.039,0.16-0.095,0.225-0.162
					c0.063-0.063,0.11-0.141,0.148-0.221c0.035-0.089,0.055-0.185,0.055-0.279c0-0.096-0.02-0.188-0.056-0.274
					c-0.039-0.088-0.089-0.161-0.153-0.228c-0.063-0.063-0.139-0.112-0.221-0.148c-0.085-0.034-0.176-0.055-0.275-0.055
					c-0.1,0-0.194,0.021-0.279,0.06c-0.087,0.037-0.163,0.09-0.227,0.152c-0.062,0.063-0.113,0.138-0.147,0.222
					C16.496,22.039,16.475,22.134,16.475,22.227z"/>
				<path fill="#FFFFFF" d="M19.376,19.72c0.114,0,0.21,0.038,0.288,0.119c0.08,0.081,0.122,0.182,0.131,0.301v2.512
					c0,0.084,0.026,0.156,0.08,0.216c0.056,0.059,0.127,0.09,0.21,0.09c0.109,0,0.204,0.036,0.288,0.112
					c0.082,0.076,0.125,0.173,0.129,0.287c0,0.101-0.034,0.194-0.106,0.27c-0.071,0.08-0.162,0.127-0.269,0.145h-0.091
					c-0.148,0-0.288-0.027-0.419-0.09c-0.133-0.063-0.246-0.145-0.346-0.246c-0.1-0.101-0.178-0.219-0.236-0.354
					c-0.054-0.141-0.084-0.281-0.084-0.428v-2.538c0.013-0.108,0.061-0.199,0.132-0.276C19.167,19.762,19.261,19.721,19.376,19.72z"
					/>
				<path fill="#FFFFFF" d="M22.309,20.688c0.188,0.025,0.367,0.078,0.535,0.17c0.168,0.092,0.313,0.199,0.434,0.341
					c0.12,0.138,0.214,0.295,0.283,0.471c0.072,0.181,0.107,0.358,0.107,0.556v1.127c0,0.113-0.04,0.213-0.125,0.295
					c-0.087,0.076-0.18,0.117-0.289,0.117c-0.147,0-0.265-0.063-0.353-0.205c-0.021,0.01-0.042,0.021-0.058,0.03
					c-0.017,0.013-0.034,0.021-0.051,0.027c-0.103,0.05-0.205,0.085-0.31,0.106c-0.11,0.027-0.228,0.038-0.349,0.038
					c-0.314,0-0.599-0.087-0.85-0.259c-0.251-0.171-0.436-0.395-0.557-0.669c-0.043-0.093-0.077-0.192-0.103-0.295
					c-0.021-0.104-0.033-0.209-0.033-0.319c0-0.113,0.014-0.215,0.033-0.313c0.026-0.104,0.059-0.203,0.103-0.302
					c0.121-0.276,0.305-0.498,0.557-0.67c0.251-0.168,0.536-0.254,0.85-0.254c0.033,0,0.064,0,0.092,0
					C22.248,20.686,22.275,20.688,22.309,20.688z M22.124,22.936c0.097,0,0.189-0.018,0.277-0.058
					c0.086-0.03,0.161-0.084,0.224-0.147c0.062-0.063,0.114-0.141,0.154-0.221c0.038-0.09,0.058-0.187,0.058-0.287
					c0-0.095-0.02-0.182-0.058-0.271c-0.041-0.085-0.091-0.16-0.157-0.229c-0.065-0.065-0.14-0.115-0.229-0.154
					c-0.084-0.038-0.175-0.059-0.269-0.059c-0.09,0-0.183,0.022-0.267,0.059c-0.082,0.039-0.157,0.089-0.223,0.154
					c-0.068,0.067-0.12,0.145-0.157,0.229c-0.041,0.085-0.058,0.181-0.058,0.271c0,0.098,0.02,0.191,0.06,0.279
					c0.042,0.083,0.094,0.16,0.16,0.223c0.065,0.063,0.14,0.111,0.225,0.15C21.949,22.918,22.034,22.936,22.124,22.936z"/>
				<path fill="#FFFFFF" d="M25.499,20.686c0.421,0,0.781,0.149,1.078,0.443c0.073,0.081,0.107,0.178,0.098,0.285
					c-0.005,0.111-0.045,0.203-0.125,0.271c-0.078,0.072-0.174,0.112-0.291,0.115c-0.118,0.008-0.215-0.031-0.293-0.115
					c-0.133-0.117-0.287-0.176-0.469-0.176c-0.095,0-0.19,0.021-0.276,0.059c-0.085,0.047-0.165,0.099-0.228,0.164
					c-0.064,0.063-0.118,0.14-0.157,0.224c-0.039,0.085-0.056,0.175-0.056,0.271c0,0.1,0.018,0.19,0.056,0.278
					c0.04,0.084,0.092,0.16,0.16,0.226c0.069,0.066,0.146,0.117,0.228,0.155c0.085,0.039,0.18,0.054,0.275,0.05
					c0.187,0,0.342-0.058,0.469-0.17c0.077-0.084,0.175-0.125,0.293-0.125c0.117,0,0.213,0.041,0.291,0.125
					c0.039,0.031,0.069,0.073,0.089,0.12c0.021,0.046,0.033,0.099,0.036,0.147c0.001,0.05-0.005,0.101-0.021,0.15
					c-0.018,0.049-0.043,0.09-0.078,0.133c-0.149,0.146-0.309,0.256-0.49,0.332c-0.176,0.08-0.373,0.115-0.587,0.115
					c-0.21,0-0.412-0.041-0.598-0.121c-0.187-0.084-0.351-0.197-0.489-0.334c-0.139-0.143-0.252-0.306-0.331-0.492
					c-0.085-0.188-0.125-0.385-0.125-0.592c0-0.201,0.04-0.397,0.125-0.584c0.08-0.188,0.192-0.353,0.335-0.488
					c0.143-0.144,0.304-0.254,0.492-0.34C25.095,20.729,25.292,20.686,25.499,20.686z"/>
				<path fill="#FFFFFF" d="M28.494,20.686c0.203,0,0.397,0.043,0.584,0.127c0.188,0.086,0.349,0.199,0.493,0.34
					c0.141,0.146,0.253,0.309,0.338,0.492c0.085,0.185,0.127,0.377,0.127,0.582c0,0.107-0.041,0.209-0.123,0.295
					c-0.083,0.084-0.184,0.123-0.308,0.119h-1.687c0.138,0.198,0.331,0.297,0.577,0.297c0.067,0,0.124-0.006,0.171-0.02
					c0.046-0.018,0.084-0.027,0.121-0.043c0.037-0.02,0.073-0.033,0.109-0.045c0.04-0.014,0.075-0.02,0.122-0.02
					c0.089,0.006,0.166,0.029,0.233,0.073c0.063,0.048,0.114,0.106,0.144,0.175c0.032,0.072,0.044,0.146,0.032,0.229
					c-0.01,0.08-0.045,0.152-0.111,0.222c-0.115,0.093-0.241,0.157-0.378,0.195c-0.14,0.035-0.288,0.057-0.445,0.06
					c-0.204,0.012-0.396-0.025-0.583-0.109c-0.186-0.088-0.349-0.2-0.493-0.336c-0.143-0.145-0.253-0.313-0.335-0.502
					c-0.083-0.188-0.125-0.39-0.125-0.59c0-0.201,0.042-0.396,0.125-0.58c0.083-0.186,0.191-0.353,0.333-0.492
					c0.14-0.141,0.302-0.254,0.49-0.34C28.089,20.729,28.287,20.686,28.494,20.686z M29.071,21.8
					c-0.072-0.088-0.155-0.155-0.254-0.209c-0.096-0.054-0.203-0.084-0.323-0.084c-0.121,0-0.232,0.027-0.327,0.084
					c-0.093,0.052-0.181,0.121-0.251,0.209H29.071z"/>
			</g>
		</g>
	</g>
	<polygon id="XMLID_7_" fill="#FFFFFF" points="16.458,11.543 17.163,13.227 18.981,13.382 17.601,14.577 18.015,16.356 
		16.458,15.409 14.895,16.356 15.312,14.577 13.932,13.382 15.751,13.227 	"/>
	<polygon id="XMLID_6_" fill="#FFFFFF" points="11.035,13.251 11.552,14.487 12.886,14.6 11.873,15.474 12.181,16.779 
		11.035,16.083 9.891,16.779 10.198,15.474 9.186,14.6 10.517,14.487 	"/>
	<polygon id="XMLID_4_" fill="#FFFFFF" points="21.877,13.251 21.36,14.487 20.029,14.6 21.037,15.474 20.733,16.779 21.877,16.083 
		23.021,16.779 22.714,15.474 23.73,14.6 22.397,14.487 	"/>
	<g>
		
			<polygon fill="#FFFFFF" stroke="#F3BD1B" stroke-width="0.5" stroke-linecap="round" stroke-linejoin="round" stroke-miterlimit="10" points="
			19.204,38.555 16.589,37.204 13.976,38.555 13.976,30.379 19.204,30.379 		"/>
		
			<line fill="none" stroke="#F3BD1B" stroke-linecap="round" stroke-linejoin="round" stroke-miterlimit="10" x1="12.931" y1="30.4" x2="20.234" y2="30.4"/>
		<polygon id="XMLID_1_" fill="#F5BD1C" points="16.542,32.551 16.992,33.623 18.15,33.717 17.27,34.479 17.534,35.607 
			16.542,35.006 15.548,35.607 15.816,34.479 14.936,33.717 16.094,33.623 		"/>
	</g>
	<g>
		<path fill="#FFFFFF" d="M5.442,14.498l-0.188,0.434l-0.558-0.01l-0.344,0.787l0.413,0.343l-0.184,0.423l-1.792-1.563l0.184-0.42
			L5.442,14.498z M4.282,14.916l-0.908-0.024l0.673,0.562L4.282,14.916z"/>
		<path fill="#FFFFFF" d="M5.779,14.027l-2.385-0.455l0.261-0.397l1.751,0.358L4.249,12.27l0.256-0.389l1.532,1.755L5.779,14.027z"
			/>
		<path fill="#FFFFFF" d="M6.649,12.825l-1.796-1.321l0.288-0.335l1.796,1.32L6.649,12.825z"/>
		<path fill="#FFFFFF" d="M6.62,11.724l0.291-0.322c0.125,0.083,0.242,0.121,0.352,0.114c0.108-0.007,0.213-0.056,0.313-0.147
			c0.107-0.096,0.165-0.19,0.175-0.28c0.01-0.091-0.015-0.165-0.074-0.221c-0.038-0.036-0.082-0.056-0.131-0.061
			c-0.049-0.005-0.112,0.01-0.189,0.042c-0.051,0.022-0.163,0.081-0.334,0.174c-0.221,0.12-0.398,0.183-0.532,0.188
			c-0.189,0.008-0.347-0.049-0.474-0.168c-0.082-0.077-0.135-0.171-0.159-0.281c-0.024-0.11-0.01-0.223,0.042-0.339
			c0.052-0.116,0.141-0.231,0.267-0.345c0.206-0.187,0.405-0.285,0.597-0.296c0.192-0.011,0.364,0.051,0.517,0.186l-0.316,0.313
			c-0.097-0.065-0.187-0.093-0.269-0.085c-0.083,0.008-0.17,0.054-0.264,0.139c-0.096,0.087-0.152,0.173-0.168,0.259
			c-0.01,0.055,0.006,0.104,0.047,0.142c0.038,0.036,0.087,0.052,0.147,0.047c0.076-0.005,0.213-0.063,0.411-0.174
			c0.199-0.111,0.356-0.182,0.473-0.214c0.117-0.033,0.231-0.036,0.344-0.01c0.112,0.025,0.22,0.086,0.321,0.183
			c0.092,0.087,0.152,0.192,0.181,0.315c0.028,0.123,0.014,0.247-0.042,0.37c-0.057,0.123-0.156,0.25-0.298,0.378
			c-0.207,0.188-0.413,0.289-0.618,0.3C7.023,11.943,6.821,11.874,6.62,11.724z"/>
		<path fill="#FFFFFF" d="M11.235,9.354L10.8,9.589l-0.435-0.324L9.572,9.693l0.099,0.505l-0.424,0.229L8.863,8.176l0.423-0.229
			L11.235,9.354z M10.042,9.026L9.339,8.493L9.5,9.318L10.042,9.026z"/>
		<path fill="#FFFFFF" d="M10.698,7.274l0.437-0.143l0.415,1.085c0.065,0.172,0.113,0.282,0.144,0.329
			c0.05,0.076,0.12,0.127,0.209,0.154c0.089,0.027,0.195,0.021,0.316-0.02c0.124-0.041,0.208-0.094,0.253-0.162
			c0.045-0.067,0.061-0.137,0.047-0.21c-0.013-0.072-0.05-0.188-0.11-0.346l-0.423-1.108l0.437-0.143l0.402,1.052
			c0.092,0.241,0.145,0.414,0.159,0.521c0.015,0.107,0.003,0.205-0.034,0.294c-0.038,0.088-0.102,0.171-0.192,0.247
			c-0.091,0.075-0.222,0.141-0.393,0.197c-0.207,0.068-0.372,0.097-0.495,0.087c-0.124-0.009-0.23-0.039-0.319-0.089
			c-0.089-0.05-0.158-0.111-0.208-0.182c-0.072-0.105-0.151-0.27-0.237-0.494L10.698,7.274z"/>
		<path fill="#FFFFFF" d="M14.176,8.532l-0.314-1.741L13.19,6.896l-0.064-0.354l1.798-0.278l0.064,0.354l-0.67,0.104l0.313,1.741
			L14.176,8.532z"/>
		<path fill="#FFFFFF" d="M15.603,8.328l0.038-2.124l0.463,0.007l-0.015,0.836l0.907,0.014l0.015-0.836l0.463,0.007l-0.037,2.124
			l-0.463-0.007L16.99,7.42l-0.908-0.014l-0.016,0.929L15.603,8.328z"/>
		<path fill="#FFFFFF" d="M17.92,8.396l0.424-2.087L20.016,6.6l-0.072,0.353l-1.217-0.212l-0.094,0.463l1.131,0.197l-0.072,0.352
			l-1.131-0.198l-0.116,0.568l1.259,0.219l-0.071,0.352L17.92,8.396z"/>
		<path fill="#FFFFFF" d="M20.02,8.795l0.825-1.981l0.42,0.15L21.59,8.6l0.551-1.324l0.402,0.144l-0.825,1.981l-0.434-0.154
			l-0.325-1.601l-0.538,1.292L20.02,8.795z"/>
		<path fill="#FFFFFF" d="M22.601,9.862l0.983-1.512l-0.583-0.325l0.2-0.308l1.562,0.871l-0.2,0.308L23.98,8.571l-0.983,1.512
			L22.601,9.862z"/>
		<path fill="#FFFFFF" d="M23.818,10.605l1.407-1.678L25.59,9.19l-1.405,1.678L23.818,10.605z"/>
		<path fill="#FFFFFF" d="M24.563,11.139l1.608-1.514l1.121,1.022l-0.271,0.256l-0.792-0.721l-0.38,0.358l0.682,0.623l-0.272,0.255
			l-0.683-0.622l-0.684,0.644L24.563,11.139z"/>
		<path fill="#FFFFFF" d="M25.926,12.458l1.79-1.329l0.29,0.334l-1.789,1.329L25.926,12.458z"/>
		<path fill="#FFFFFF" d="M26.514,13.126l1.955-1.114l0.891,1.342l-0.331,0.188l-0.647-0.976l-0.434,0.247l0.604,0.908l-0.329,0.188
			l-0.604-0.908l-0.531,0.303l0.671,1.011l-0.329,0.188L26.514,13.126z M28.889,12.414l0.512-0.057l0.258,0.389l-0.624-0.113
			L28.889,12.414z"/>
		<path fill="#FFFFFF" d="M28.254,14.482l0.207,0.374c-0.13,0.075-0.214,0.16-0.249,0.256c-0.036,0.095-0.027,0.203,0.025,0.324
			c0.054,0.129,0.125,0.215,0.211,0.259c0.086,0.042,0.169,0.05,0.248,0.022c0.049-0.019,0.087-0.049,0.111-0.089
			c0.024-0.041,0.034-0.099,0.031-0.177c-0.002-0.053-0.016-0.17-0.042-0.353c-0.034-0.235-0.028-0.411,0.019-0.528
			c0.065-0.165,0.183-0.277,0.352-0.339c0.108-0.04,0.222-0.049,0.341-0.026c0.12,0.022,0.226,0.078,0.321,0.168
			c0.096,0.089,0.176,0.209,0.241,0.361c0.106,0.248,0.127,0.457,0.063,0.625s-0.193,0.292-0.387,0.369l-0.189-0.392
			c0.102-0.057,0.165-0.122,0.189-0.197c0.025-0.073,0.012-0.167-0.035-0.278c-0.05-0.116-0.114-0.198-0.194-0.244
			c-0.051-0.031-0.104-0.036-0.159-0.016c-0.05,0.019-0.084,0.055-0.105,0.107c-0.024,0.067-0.019,0.207,0.015,0.418
			c0.033,0.212,0.043,0.375,0.03,0.487c-0.013,0.111-0.054,0.211-0.124,0.297c-0.069,0.086-0.17,0.154-0.306,0.203
			c-0.122,0.045-0.25,0.056-0.383,0.032c-0.135-0.024-0.251-0.083-0.353-0.181c-0.101-0.096-0.188-0.229-0.261-0.401
			c-0.106-0.249-0.126-0.464-0.059-0.643C27.879,14.743,28.027,14.596,28.254,14.482z"/>
	</g>
</g>
</svg>
